<svg xmlns="http://www.w3.org/2000/svg" xmlns:xlink="http://www.w3.org/1999/xlink" width="500" zoomAndPan="magnify" viewBox="0 0 375 374.999991" height="500" preserveAspectRatio="xMidYMid meet" version="1.0"><defs><g/></defs><path fill="#d9d9d9" d="M 154.507812 167.847656 L 208.785156 167.847656 C 209.265625 167.847656 209.726562 168.035156 210.066406 168.375 C 210.402344 168.714844 210.59375 169.175781 210.59375 169.65625 L 210.59375 188.644531 C 210.59375 189.125 210.402344 189.585938 210.066406 189.925781 C 209.726562 190.261719 209.265625 190.453125 208.785156 190.453125 L 154.507812 190.453125 C 154.027344 190.453125 153.566406 190.261719 153.230469 189.925781 C 152.890625 189.585938 152.699219 189.125 152.699219 188.644531 L 152.699219 169.65625 C 152.699219 169.175781 152.890625 168.714844 153.230469 168.375 C 153.566406 168.035156 154.027344 167.847656 154.507812 167.847656 Z M 154.507812 167.847656 " fill-opacity="0.7" fill-rule="nonzero"/><g fill="#000000" fill-opacity="1"><g transform="translate(157.306797, 184.399982)"><g><path d="M 15.65625 -7.390625 C 15.65625 -7.023438 15.566406 -6.675781 15.390625 -6.34375 C 15.203125 -5.976562 14.953125 -5.726562 14.640625 -5.59375 C 14.753906 -6.082031 14.8125 -6.503906 14.8125 -6.859375 C 14.8125 -7.828125 14.390625 -8.3125 13.546875 -8.3125 C 13.328125 -8.3125 13.078125 -8.273438 12.796875 -8.203125 C 12.304688 -8.085938 11.335938 -7.71875 9.890625 -7.09375 C 7.941406 -6.25 6.65625 -5.710938 6.03125 -5.484375 C 4.570312 -4.941406 3.503906 -4.671875 2.828125 -4.671875 C 2.703125 -4.671875 2.59375 -4.675781 2.5 -4.6875 C 2.332031 -4.269531 2.25 -3.765625 2.25 -3.171875 C 2.25 -2.816406 2.414062 -2.515625 2.75 -2.265625 C 3.0625 -2.035156 3.398438 -1.921875 3.765625 -1.921875 C 4.765625 -1.921875 5.835938 -2.222656 6.984375 -2.828125 C 7.554688 -3.148438 8.597656 -3.71875 10.109375 -4.53125 C 11.265625 -5.144531 12.394531 -5.453125 13.5 -5.453125 C 14.90625 -5.453125 15.59375 -4.597656 15.5625 -2.890625 C 15.5625 -2.628906 15.503906 -2.429688 15.390625 -2.296875 C 15.347656 -2.253906 15.238281 -2.144531 15.0625 -1.96875 C 15.082031 -2.113281 15.09375 -2.253906 15.09375 -2.390625 C 15.09375 -2.972656 14.957031 -3.4375 14.6875 -3.78125 C 14.382812 -4.15625 13.953125 -4.34375 13.390625 -4.34375 C 12.472656 -4.34375 11.410156 -4.015625 10.203125 -3.359375 C 9.597656 -3.015625 8.492188 -2.40625 6.890625 -1.53125 C 5.679688 -0.875 4.597656 -0.546875 3.640625 -0.546875 C 3.054688 -0.546875 2.5 -0.753906 1.96875 -1.171875 C 1.394531 -1.617188 1.113281 -2.125 1.125 -2.6875 C 1.125 -3.375 1.132812 -3.785156 1.15625 -3.921875 C 1.164062 -4.066406 1.269531 -4.441406 1.46875 -5.046875 C 1.15625 -5.390625 0.957031 -5.789062 0.875 -6.25 C 0.84375 -6.445312 0.8125 -6.898438 0.78125 -7.609375 C 0.769531 -7.921875 0.921875 -8.378906 1.234375 -8.984375 C 1.566406 -9.628906 1.875 -9.957031 2.15625 -9.96875 C 2.300781 -9.96875 2.425781 -9.890625 2.53125 -9.734375 C 2.613281 -9.597656 2.65625 -9.453125 2.65625 -9.296875 C 2.65625 -9.179688 2.632812 -9.082031 2.59375 -9 L 2.09375 -8.03125 C 1.945312 -7.726562 1.875 -7.394531 1.875 -7.03125 C 1.875 -6.914062 1.878906 -6.820312 1.890625 -6.75 C 1.972656 -6.082031 2.34375 -5.75 3 -5.75 C 3.0625 -5.75 3.113281 -5.753906 3.15625 -5.765625 C 3.75 -5.765625 4.78125 -6.082031 6.25 -6.71875 C 7 -7.050781 8.351562 -7.640625 10.3125 -8.484375 C 11.789062 -9.117188 13 -9.4375 13.9375 -9.4375 C 14.382812 -9.4375 14.785156 -9.203125 15.140625 -8.734375 C 15.484375 -8.296875 15.65625 -7.847656 15.65625 -7.390625 Z M 15.65625 -7.390625 "/></g></g></g><g fill="#000000" fill-opacity="1"><g transform="translate(173.730818, 184.399982)"><g><path d="M 14.40625 -2.421875 C 15.132812 -3.128906 15.5 -3.960938 15.5 -4.921875 C 15.5 -5.503906 15.382812 -5.914062 15.15625 -6.15625 C 14.9375 -6.394531 14.539062 -6.515625 13.96875 -6.515625 C 13.15625 -6.515625 12.15625 -5.953125 10.96875 -4.828125 C 10.351562 -4.234375 9.238281 -3.179688 7.625 -1.671875 C 6.394531 -0.546875 5.234375 0.015625 4.140625 0.015625 C 3.203125 0.015625 2.4375 -0.34375 1.84375 -1.0625 C 1.289062 -1.726562 1.015625 -2.539062 1.015625 -3.5 C 1.015625 -4.019531 1.144531 -4.519531 1.40625 -5 C 1.664062 -5.476562 2.015625 -5.84375 2.453125 -6.09375 C 1.941406 -6.570312 1.382812 -7.226562 0.78125 -8.0625 C 0.78125 -8.476562 0.929688 -8.6875 1.234375 -8.6875 C 1.347656 -8.6875 1.523438 -8.570312 1.765625 -8.34375 C 2.097656 -8.007812 2.347656 -7.785156 2.515625 -7.671875 C 2.867188 -7.429688 3.25 -7.3125 3.65625 -7.3125 C 4.40625 -7.3125 5.285156 -7.679688 6.296875 -8.421875 C 5.878906 -8.503906 5.3125 -8.820312 4.59375 -9.375 C 3.882812 -9.925781 3.453125 -10.394531 3.296875 -10.78125 C 3.335938 -10.96875 3.457031 -11.0625 3.65625 -11.0625 C 3.707031 -11.0625 4.171875 -10.757812 5.046875 -10.15625 C 5.960938 -9.53125 6.625 -9.179688 7.03125 -9.109375 C 7.382812 -9.492188 7.5625 -9.890625 7.5625 -10.296875 C 7.5625 -11.171875 6.910156 -11.941406 5.609375 -12.609375 C 5.585938 -12.753906 5.640625 -12.867188 5.765625 -12.953125 C 5.878906 -13.015625 6.015625 -13.046875 6.171875 -13.046875 C 6.710938 -13.035156 7.257812 -12.6875 7.8125 -12 C 8.332031 -11.351562 8.59375 -10.75 8.59375 -10.1875 C 8.59375 -9.695312 8.410156 -9.242188 8.046875 -8.828125 C 9.578125 -8.679688 10.503906 -8.609375 10.828125 -8.609375 C 11.171875 -8.609375 11.492188 -8.625 11.796875 -8.65625 C 11.296875 -8.09375 10.535156 -7.8125 9.515625 -7.8125 C 9.179688 -7.8125 8.757812 -7.84375 8.25 -7.90625 C 7.664062 -7.976562 7.316406 -8.019531 7.203125 -8.03125 C 5.921875 -6.945312 4.753906 -6.40625 3.703125 -6.40625 C 3.628906 -6.40625 3.554688 -6.410156 3.484375 -6.421875 L 3.953125 -5.78125 C 3.910156 -5.644531 3.726562 -5.5 3.40625 -5.34375 C 2.988281 -5.15625 2.703125 -4.984375 2.546875 -4.828125 C 2.253906 -4.515625 2.109375 -4.085938 2.109375 -3.546875 C 2.109375 -2.847656 2.285156 -2.273438 2.640625 -1.828125 C 3.023438 -1.328125 3.554688 -1.078125 4.234375 -1.078125 C 5.160156 -1.078125 6.195312 -1.632812 7.34375 -2.75 C 7.925781 -3.332031 9 -4.367188 10.5625 -5.859375 C 11.769531 -6.972656 13.054688 -7.53125 14.421875 -7.53125 C 15.066406 -7.53125 15.597656 -7.257812 16.015625 -6.71875 C 16.410156 -6.207031 16.609375 -5.625 16.609375 -4.96875 C 16.609375 -4.3125 16.398438 -3.753906 15.984375 -3.296875 C 15.578125 -2.847656 15.050781 -2.554688 14.40625 -2.421875 Z M 14.40625 -2.421875 "/></g></g></g><g fill="#000000" fill-opacity="1"><g transform="translate(191.116818, 184.399982)"><g><path d="M 7.453125 -9.203125 C 9.085938 -9.085938 10.421875 -8.585938 11.453125 -7.703125 C 12.546875 -6.785156 13.195312 -5.53125 13.40625 -3.9375 C 13.5 -3.226562 13.546875 -2.640625 13.546875 -2.171875 C 13.546875 -1.597656 13.476562 -1.101562 13.34375 -0.6875 C 13.21875 -0.632812 13.09375 -0.609375 12.96875 -0.609375 C 12.800781 -0.609375 12.632812 -0.65625 12.46875 -0.75 C 12.46875 -1.625 12.363281 -2.6875 12.15625 -3.9375 C 12.070312 -6.070312 10.734375 -7.453125 8.140625 -8.078125 C 8.796875 -7.535156 9.125 -6.960938 9.125 -6.359375 C 9.125 -6.066406 9.046875 -5.765625 8.890625 -5.453125 C 9.285156 -5.109375 9.484375 -4.769531 9.484375 -4.4375 C 9.484375 -4.09375 9.265625 -3.757812 8.828125 -3.4375 C 9.078125 -2.988281 9.203125 -2.601562 9.203125 -2.28125 C 9.203125 -1.507812 8.492188 -1.125 7.078125 -1.125 C 7.710938 -1.625 8.03125 -2.125 8.03125 -2.625 C 8.03125 -2.914062 7.921875 -3.207031 7.703125 -3.5 C 7.972656 -3.9375 8.109375 -4.328125 8.109375 -4.671875 C 8.109375 -4.960938 8.015625 -5.222656 7.828125 -5.453125 C 7.910156 -5.660156 7.953125 -5.863281 7.953125 -6.0625 C 7.953125 -6.757812 7.453125 -7.429688 6.453125 -8.078125 C 3.742188 -7.328125 2.304688 -5.925781 2.140625 -3.875 C 2.023438 -3.507812 1.96875 -3.054688 1.96875 -2.515625 C 1.96875 -2.085938 2.003906 -1.601562 2.078125 -1.0625 C 1.929688 -0.84375 1.742188 -0.734375 1.515625 -0.734375 C 1.398438 -0.734375 1.273438 -0.757812 1.140625 -0.8125 C 0.898438 -1.894531 0.78125 -2.726562 0.78125 -3.3125 C 0.78125 -3.53125 0.796875 -3.71875 0.828125 -3.875 C 1.109375 -5.550781 1.867188 -6.851562 3.109375 -7.78125 C 4.253906 -8.644531 5.703125 -9.117188 7.453125 -9.203125 Z M 7.453125 -9.203125 "/></g></g></g></svg>